<mxfile modified="2023-04-19T21:34:36.704Z" host="app.diagrams.net" agent="Mozilla/5.0 (Windows NT 10.0; Win64; x64) AppleWebKit/537.36 (KHTML, like Gecko) Chrome/112.0.0.0 Safari/537.36" etag="myaiciKaaoo9B1yYx5Ii" version="21.1.9" type="device">
  <diagram id="Ht1M8jgEwFfnCIfOTk4-" name="Page-1">
    <mxGraphModel dx="1130" dy="684" grid="1" gridSize="10" guides="1" tooltips="1" connect="1" arrows="1" fold="1" page="1" pageScale="1" pageWidth="1100" pageHeight="850" math="0" shadow="0">
      <root>
        <mxCell id="0" />
        <mxCell id="1" parent="0" />
        <mxCell id="dCsplsazxw89-Gi5p80j-7" value="VPC" style="points=[[0,0],[0.25,0],[0.5,0],[0.75,0],[1,0],[1,0.25],[1,0.5],[1,0.75],[1,1],[0.75,1],[0.5,1],[0.25,1],[0,1],[0,0.75],[0,0.5],[0,0.25]];outlineConnect=0;gradientColor=none;html=1;whiteSpace=wrap;fontSize=12;fontStyle=0;container=1;pointerEvents=0;collapsible=0;recursiveResize=0;shape=mxgraph.aws4.group;grIcon=mxgraph.aws4.group_vpc;strokeColor=#248814;fillColor=none;verticalAlign=top;align=left;spacingLeft=30;fontColor=#AAB7B8;dashed=0;" parent="1" vertex="1">
          <mxGeometry x="90" y="148" width="440" height="382" as="geometry" />
        </mxCell>
        <mxCell id="dCsplsazxw89-Gi5p80j-8" value="Private subnet" style="points=[[0,0],[0.25,0],[0.5,0],[0.75,0],[1,0],[1,0.25],[1,0.5],[1,0.75],[1,1],[0.75,1],[0.5,1],[0.25,1],[0,1],[0,0.75],[0,0.5],[0,0.25]];outlineConnect=0;gradientColor=none;html=1;whiteSpace=wrap;fontSize=12;fontStyle=0;container=1;pointerEvents=0;collapsible=0;recursiveResize=0;shape=mxgraph.aws4.group;grIcon=mxgraph.aws4.group_security_group;grStroke=0;strokeColor=#147EBA;fillColor=#E6F2F8;verticalAlign=top;align=left;spacingLeft=30;fontColor=#147EBA;dashed=0;" parent="dCsplsazxw89-Gi5p80j-7" vertex="1">
          <mxGeometry x="200" y="20" width="180" height="319" as="geometry" />
        </mxCell>
        <mxCell id="dCsplsazxw89-Gi5p80j-3" value="Ports 80" style="endArrow=classic;html=1;rounded=0;" parent="1" target="P-5se-6p12yH7wMoxhpM-3" edge="1" source="dCsplsazxw89-Gi5p80j-15">
          <mxGeometry x="0.0035" width="50" height="50" relative="1" as="geometry">
            <mxPoint x="293.1233147940434" y="114.04919181009427" as="sourcePoint" />
            <mxPoint x="490" y="169" as="targetPoint" />
            <mxPoint as="offset" />
            <Array as="points">
              <mxPoint x="399" y="54" />
            </Array>
          </mxGeometry>
        </mxCell>
        <mxCell id="P-5se-6p12yH7wMoxhpM-4" value="Application Server" style="points=[[0,0,0],[0.25,0,0],[0.5,0,0],[0.75,0,0],[1,0,0],[0,1,0],[0.25,1,0],[0.5,1,0],[0.75,1,0],[1,1,0],[0,0.25,0],[0,0.5,0],[0,0.75,0],[1,0.25,0],[1,0.5,0],[1,0.75,0]];outlineConnect=0;fontColor=#232F3E;gradientColor=#F78E04;gradientDirection=north;fillColor=#D05C17;strokeColor=#ffffff;dashed=0;verticalLabelPosition=bottom;verticalAlign=top;align=center;html=1;fontSize=12;fontStyle=0;aspect=fixed;shape=mxgraph.aws4.resourceIcon;resIcon=mxgraph.aws4.ec2;" parent="1" vertex="1">
          <mxGeometry x="360" y="376" width="78" height="78" as="geometry" />
        </mxCell>
        <mxCell id="P-5se-6p12yH7wMoxhpM-3" value="Web Server" style="points=[[0,0,0],[0.25,0,0],[0.5,0,0],[0.75,0,0],[1,0,0],[0,1,0],[0.25,1,0],[0.5,1,0],[0.75,1,0],[1,1,0],[0,0.25,0],[0,0.5,0],[0,0.75,0],[1,0.25,0],[1,0.5,0],[1,0.75,0]];outlineConnect=0;fontColor=#232F3E;gradientColor=#F78E04;gradientDirection=north;fillColor=#D05C17;strokeColor=#ffffff;dashed=0;verticalLabelPosition=bottom;verticalAlign=top;align=center;html=1;fontSize=12;fontStyle=0;aspect=fixed;shape=mxgraph.aws4.resourceIcon;resIcon=mxgraph.aws4.ec2;" parent="1" vertex="1">
          <mxGeometry x="360" y="230" width="78" height="78" as="geometry" />
        </mxCell>
        <mxCell id="dCsplsazxw89-Gi5p80j-10" value="Region" style="points=[[0,0],[0.25,0],[0.5,0],[0.75,0],[1,0],[1,0.25],[1,0.5],[1,0.75],[1,1],[0.75,1],[0.5,1],[0.25,1],[0,1],[0,0.75],[0,0.5],[0,0.25]];outlineConnect=0;gradientColor=none;html=1;whiteSpace=wrap;fontSize=12;fontStyle=0;container=1;pointerEvents=0;collapsible=0;recursiveResize=0;shape=mxgraph.aws4.group;grIcon=mxgraph.aws4.group_region;strokeColor=#147EBA;fillColor=none;verticalAlign=top;align=left;spacingLeft=30;fontColor=#147EBA;dashed=1;" parent="1" vertex="1">
          <mxGeometry x="40" y="120" width="520" height="420" as="geometry" />
        </mxCell>
        <mxCell id="dCsplsazxw89-Gi5p80j-9" value="Public subnet" style="points=[[0,0],[0.25,0],[0.5,0],[0.75,0],[1,0],[1,0.25],[1,0.5],[1,0.75],[1,1],[0.75,1],[0.5,1],[0.25,1],[0,1],[0,0.75],[0,0.5],[0,0.25]];outlineConnect=0;gradientColor=none;html=1;whiteSpace=wrap;fontSize=12;fontStyle=0;container=1;pointerEvents=0;collapsible=0;recursiveResize=0;shape=mxgraph.aws4.group;grIcon=mxgraph.aws4.group_security_group;grStroke=0;strokeColor=#248814;fillColor=#E9F3E6;verticalAlign=top;align=left;spacingLeft=30;fontColor=#248814;dashed=0;" parent="dCsplsazxw89-Gi5p80j-10" vertex="1">
          <mxGeometry x="100" y="99" width="124" height="268" as="geometry" />
        </mxCell>
        <mxCell id="P-5se-6p12yH7wMoxhpM-5" value="Bastion Host" style="points=[[0,0,0],[0.25,0,0],[0.5,0,0],[0.75,0,0],[1,0,0],[0,1,0],[0.25,1,0],[0.5,1,0],[0.75,1,0],[1,1,0],[0,0.25,0],[0,0.5,0],[0,0.75,0],[1,0.25,0],[1,0.5,0],[1,0.75,0]];outlineConnect=0;fontColor=#232F3E;gradientColor=#F78E04;gradientDirection=north;fillColor=#D05C17;strokeColor=#ffffff;dashed=0;verticalLabelPosition=bottom;verticalAlign=top;align=center;html=1;fontSize=12;fontStyle=0;aspect=fixed;shape=mxgraph.aws4.resourceIcon;resIcon=mxgraph.aws4.ec2;" parent="dCsplsazxw89-Gi5p80j-9" vertex="1">
          <mxGeometry x="23" y="157" width="78" height="78" as="geometry" />
        </mxCell>
        <mxCell id="dCsplsazxw89-Gi5p80j-11" value="AZ: us-west-2a" style="fillColor=none;strokeColor=#147EBA;dashed=1;verticalAlign=top;fontStyle=0;fontColor=#147EBA;whiteSpace=wrap;html=1;" parent="dCsplsazxw89-Gi5p80j-10" vertex="1">
          <mxGeometry x="100" y="219" width="330" height="150" as="geometry" />
        </mxCell>
        <mxCell id="dCsplsazxw89-Gi5p80j-13" value="AZ: us-west-2b" style="fillColor=none;strokeColor=#147EBA;dashed=1;verticalAlign=top;fontStyle=0;fontColor=#147EBA;whiteSpace=wrap;html=1;" parent="dCsplsazxw89-Gi5p80j-10" vertex="1">
          <mxGeometry x="250" y="83" width="180" height="124" as="geometry" />
        </mxCell>
        <mxCell id="dCsplsazxw89-Gi5p80j-4" value="Port 22" style="endArrow=classic;html=1;rounded=0;entryX=0.5;entryY=0;entryDx=0;entryDy=0;entryPerimeter=0;" parent="1" target="P-5se-6p12yH7wMoxhpM-5" edge="1" source="dCsplsazxw89-Gi5p80j-15">
          <mxGeometry width="50" height="50" relative="1" as="geometry">
            <mxPoint x="255.23999999999978" y="119" as="sourcePoint" />
            <mxPoint x="490" y="169" as="targetPoint" />
            <Array as="points">
              <mxPoint x="200" y="54" />
            </Array>
          </mxGeometry>
        </mxCell>
        <mxCell id="dCsplsazxw89-Gi5p80j-15" value="" style="sketch=0;outlineConnect=0;fontColor=#232F3E;gradientColor=none;fillColor=#232F3D;strokeColor=none;dashed=0;verticalLabelPosition=bottom;verticalAlign=top;align=center;html=1;fontSize=12;fontStyle=0;aspect=fixed;pointerEvents=1;shape=mxgraph.aws4.internet;" parent="1" vertex="1">
          <mxGeometry x="230" y="20" width="110.5" height="68" as="geometry" />
        </mxCell>
        <mxCell id="dCsplsazxw89-Gi5p80j-5" value="" style="endArrow=classic;html=1;rounded=0;entryX=0;entryY=0.5;entryDx=0;entryDy=0;entryPerimeter=0;" parent="1" target="P-5se-6p12yH7wMoxhpM-3" edge="1">
          <mxGeometry width="50" height="50" relative="1" as="geometry">
            <mxPoint x="240" y="399" as="sourcePoint" />
            <mxPoint x="199" y="369" as="targetPoint" />
            <Array as="points">
              <mxPoint x="300" y="399" />
              <mxPoint x="300" y="270" />
            </Array>
          </mxGeometry>
        </mxCell>
        <mxCell id="354w-Uchnp08ETJRkTah-2" value="Public Subnet&lt;br&gt;&lt;ul&gt;&lt;li&gt;&lt;font face=&quot;Verdana&quot;&gt;10.0.101.0/24&lt;/font&gt;&lt;/li&gt;&lt;li&gt;&lt;font face=&quot;Verdana&quot;&gt;10.0.102.0/24&lt;/font&gt;&lt;/li&gt;&lt;/ul&gt;Private Subnet&lt;br&gt;&lt;div style=&quot;&quot;&gt;&lt;ul&gt;&lt;li&gt;10.0.1.0/24&lt;/li&gt;&lt;li&gt;10.0.2.0/24&lt;/li&gt;&lt;/ul&gt;&lt;/div&gt;" style="rounded=0;whiteSpace=wrap;html=1;fillColor=#ffe6cc;strokeColor=#d79b00;align=left;verticalAlign=top;spacingLeft=10;" vertex="1" parent="1">
          <mxGeometry x="580" y="120" width="170" height="220" as="geometry" />
        </mxCell>
        <mxCell id="dCsplsazxw89-Gi5p80j-6" value="Port 22" style="endArrow=classic;html=1;rounded=0;exitX=1;exitY=0.5;exitDx=0;exitDy=0;entryX=0;entryY=0.5;entryDx=0;entryDy=0;entryPerimeter=0;exitPerimeter=0;" parent="1" edge="1">
          <mxGeometry width="50" height="50" relative="1" as="geometry">
            <mxPoint x="241" y="399" as="sourcePoint" />
            <mxPoint x="360" y="399" as="targetPoint" />
          </mxGeometry>
        </mxCell>
      </root>
    </mxGraphModel>
  </diagram>
</mxfile>
